<?xml version="1.0" encoding="UTF-8"?>
<svg width="500" height="400" viewBox="0 0 500 400" fill="none" xmlns="http://www.w3.org/2000/svg">
  <!-- Background -->
  <rect width="500" height="400" fill="#1E1E1E"/>
  
  <!-- Face outline -->
  <ellipse cx="250" cy="175" rx="120" ry="140" fill="#111827"/>
  
  <!-- Facial features -->
  <circle cx="215" cy="145" r="15" fill="#1F2937"/>  <!-- left eye socket -->
  <circle cx="285" cy="145" r="15" fill="#1F2937"/>  <!-- right eye socket -->
  
  <circle cx="215" cy="145" r="8" fill="#4B5563"/>  <!-- left eye -->
  <circle cx="285" cy="145" r="8" fill="#4B5563"/>  <!-- right eye -->
  
  <circle cx="213" cy="143" r="3" fill="white"/>  <!-- left eye highlight -->
  <circle cx="283" cy="143" r="3" fill="white"/>  <!-- right eye highlight -->
  
  <path d="M230 190 Q250 210 270 190" stroke="#4B5563" stroke-width="3"/>  <!-- mouth -->
  <path d="M250 165 Q250 180 250 185" stroke="#4B5563" stroke-width="3"/>  <!-- nose -->
  
  <!-- Facial recognition points -->
  <circle cx="215" cy="125" r="2" fill="#6366F1"/>  <!-- eyebrow left 1 -->
  <circle cx="225" cy="122" r="2" fill="#6366F1"/>  <!-- eyebrow left 2 -->
  <circle cx="235" cy="124" r="2" fill="#6366F1"/>  <!-- eyebrow left 3 -->
  
  <circle cx="265" cy="124" r="2" fill="#6366F1"/>  <!-- eyebrow right 1 -->
  <circle cx="275" cy="122" r="2" fill="#6366F1"/>  <!-- eyebrow right 2 -->
  <circle cx="285" cy="125" r="2" fill="#6366F1"/>  <!-- eyebrow right 3 -->
  
  <circle cx="215" cy="145" r="2" fill="#6366F1"/>  <!-- eye left -->
  <circle cx="285" cy="145" r="2" fill="#6366F1"/>  <!-- eye right -->
  
  <circle cx="240" cy="185" r="2" fill="#6366F1"/>  <!-- mouth left -->
  <circle cx="250" cy="190" r="2" fill="#6366F1"/>  <!-- mouth center -->
  <circle cx="260" cy="185" r="2" fill="#6366F1"/>  <!-- mouth right -->
  
  <circle cx="250" cy="165" r="2" fill="#6366F1"/>  <!-- nose top -->
  <circle cx="245" cy="175" r="2" fill="#6366F1"/>  <!-- nose left -->
  <circle cx="255" cy="175" r="2" fill="#6366F1"/>  <!-- nose right -->
  
  <circle cx="175" cy="175" r="2" fill="#6366F1"/>  <!-- face outline left 1 -->
  <circle cx="170" cy="210" r="2" fill="#6366F1"/>  <!-- face outline left 2 -->
  <circle cx="180" cy="250" r="2" fill="#6366F1"/>  <!-- face outline left 3 -->
  
  <circle cx="325" cy="175" r="2" fill="#6366F1"/>  <!-- face outline right 1 -->
  <circle cx="330" cy="210" r="2" fill="#6366F1"/>  <!-- face outline right 2 -->
  <circle cx="320" cy="250" r="2" fill="#6366F1"/>  <!-- face outline right 3 -->
  
  <circle cx="250" cy="90" r="2" fill="#6366F1"/>  <!-- forehead -->
  <circle cx="250" cy="300" r="2" fill="#6366F1"/>  <!-- chin -->
  
  <!-- Connection lines for facial mesh -->
  <path d="M215 125L225 122L235 124L250 90L265 124L275 122L285 125" stroke="#6366F1" stroke-width="1" opacity="0.5"/>
  <path d="M215 125L215 145L240 185L250 190L260 185L285 145L285 125" stroke="#6366F1" stroke-width="1" opacity="0.5"/>
  <path d="M250 90L250 165L245 175L255 175" stroke="#6366F1" stroke-width="1" opacity="0.5"/>
  <path d="M175 175L215 145L215 125" stroke="#6366F1" stroke-width="1" opacity="0.5"/>
  <path d="M325 175L285 145L285 125" stroke="#6366F1" stroke-width="1" opacity="0.5"/>
  <path d="M175 175L170 210L180 250L250 300L320 250L330 210L325 175" stroke="#6366F1" stroke-width="1" opacity="0.5"/>
  <path d="M180 250L240 185" stroke="#6366F1" stroke-width="1" opacity="0.5"/>
  <path d="M320 250L260 185" stroke="#6366F1" stroke-width="1" opacity="0.5"/>
  
  <!-- AI analysis indicators -->
  <circle cx="250" cy="175" r="160" stroke="#6366F1" stroke-width="1" stroke-dasharray="5 5"/>
  
  <!-- Skin tone detection box -->
  <rect x="100" y="330" width="300" height="50" rx="5" fill="#4338CA" fill-opacity="0.1" stroke="#6366F1" stroke-width="1"/>
  <text x="250" y="360" font-family="Arial" font-size="16" fill="white" text-anchor="middle">Analyzing Skin Tone: Deep Warm</text>
  
  <!-- AI indicators -->
  <rect x="390" y="125" width="80" height="20" rx="3" fill="#4338CA" fill-opacity="0.2" stroke="#6366F1" stroke-width="1"/>
  <text x="430" y="139" font-family="Arial" font-size="10" fill="white" text-anchor="middle">Facial Structure</text>
  
  <rect x="390" y="155" width="80" height="20" rx="3" fill="#4338CA" fill-opacity="0.2" stroke="#6366F1" stroke-width="1"/>
  <text x="430" y="169" font-family="Arial" font-size="10" fill="white" text-anchor="middle">Skin Undertone</text>
  
  <rect x="390" y="185" width="80" height="20" rx="3" fill="#4338CA" fill-opacity="0.2" stroke="#6366F1" stroke-width="1"/>
  <text x="430" y="199" font-family="Arial" font-size="10" fill="white" text-anchor="middle">Color Analysis</text>
  
  <!-- Title -->
  <text x="250" y="40" font-family="Arial" font-size="20" fill="white" text-anchor="middle">AI Skin Tone Analysis</text>
  <text x="250" y="65" font-family="Arial" font-size="12" fill="#6366F1" text-anchor="middle">Analyzing 27 facial points for optimal color recommendations</text>
</svg>