<?xml version="1.0" encoding="UTF-8"?>
<svg width="400" height="400" viewBox="0 0 400 400" fill="none" xmlns="http://www.w3.org/2000/svg">
  <!-- Background -->
  <rect width="400" height="400" fill="#1E1E1E"/>
  
  <!-- Color wheel background -->
  <circle cx="200" cy="160" r="100" fill="#111827"/>
  
  <!-- Color palette sections -->
  <path d="M200 60L235 80L250 115L235 150H165L150 115L165 80L200 60Z" fill="#2563EB"/>
  <path d="M250 115L275 130L290 160L275 190L255 200L235 150L250 115Z" fill="#10B981"/>
  <path d="M235 150L255 200L235 230L200 240L165 230L145 200L165 150H235Z" fill="#8B5CF6"/>
  <path d="M165 150L145 200L125 190L110 160L125 130L150 115L165 80L165 150Z" fill="#F59E0B"/>
  
  <!-- Center color dot -->
  <circle cx="200" cy="160" r="20" fill="#E5E7EB"/>
  <circle cx="200" cy="160" r="15" fill="white"/>
  
  <!-- Connection lines from center -->
  <line x1="200" y1="160" x2="200" y2="60" stroke="#6366F1" stroke-width="1" stroke-dasharray="3 3"/>
  <line x1="200" y1="160" x2="290" y2="160" stroke="#6366F1" stroke-width="1" stroke-dasharray="3 3"/>
  <line x1="200" y1="160" x2="200" y2="240" stroke="#6366F1" stroke-width="1" stroke-dasharray="3 3"/>
  <line x1="200" y1="160" x2="110" y2="160" stroke="#6366F1" stroke-width="1" stroke-dasharray="3 3"/>
  
  <!-- Color swatches -->
  <rect x="50" y="300" width="50" height="50" rx="5" fill="#2563EB"/>
  <rect x="120" y="300" width="50" height="50" rx="5" fill="#10B981"/>
  <rect x="190" y="300" width="50" height="50" rx="5" fill="#8B5CF6"/>
  <rect x="260" y="300" width="50" height="50" rx="5" fill="#F59E0B"/>
  <rect x="330" y="300" width="50" height="50" rx="5" fill="#EF4444"/>
  
  <!-- Labels -->
  <text x="200" y="30" font-family="Arial" font-size="16" fill="white" text-anchor="middle">Your Personalized Color Palette</text>
  
  <text x="75" y="370" font-family="Arial" font-size="10" fill="white" text-anchor="middle">Deep Blue</text>
  <text x="145" y="370" font-family="Arial" font-size="10" fill="white" text-anchor="middle">Emerald</text>
  <text x="215" y="370" font-family="Arial" font-size="10" fill="white" text-anchor="middle">Violet</text>
  <text x="285" y="370" font-family="Arial" font-size="10" fill="white" text-anchor="middle">Amber</text>
  <text x="355" y="370" font-family="Arial" font-size="10" fill="white" text-anchor="middle">Ruby</text>
  
  <!-- Skin tone box -->
  <rect x="125" y="230" width="150" height="50" rx="5" fill="#8D5524"/>
  <text x="200" y="260" font-family="Arial" font-size="14" fill="white" text-anchor="middle">Warm Deep Skin Tone</text>
  
  <!-- Connecting arrow -->
  <path d="M200 190V230" stroke="white" stroke-width="1" stroke-dasharray="2 2"/>
  <path d="M200 230L195 225H205L200 230Z" fill="white"/>
</svg>