<?xml version="1.0" encoding="UTF-8"?>
<svg width="400" height="500" viewBox="0 0 400 500" fill="none" xmlns="http://www.w3.org/2000/svg">
  <!-- Background -->
  <rect width="400" height="500" fill="#1E1E1E"/>
  
  <!-- Person silhouette -->
  <path d="M200 150C233.137 150 260 123.137 260 90C260 56.8629 233.137 30 200 30C166.863 30 140 56.8629 140 90C140 123.137 166.863 150 200 150Z" fill="#374151"/>
  <path d="M120 300V280C120 235.817 155.817 200 200 200C244.183 200 280 235.817 280 280V300" stroke="#374151" stroke-width="10"/>
  
  <!-- Phone frame -->
  <rect x="80" y="80" width="240" height="340" rx="20" stroke="#6366F1" stroke-width="10"/>
  
  <!-- Camera -->
  <circle cx="200" cy="115" r="50" fill="#111827"/>
  <circle cx="200" cy="115" r="40" fill="#1F2937"/>
  <circle cx="200" cy="115" r="30" fill="#111827"/>
  <circle cx="200" cy="115" r="15" fill="#4B5563"/>
  <circle cx="195" cy="110" r="5" fill="white" fill-opacity="0.5"/>
  
  <!-- Flash -->
  <circle cx="240" cy="115" r="10" fill="#FBBF24"/>
  
  <!-- Target focus lines -->
  <rect x="130" y="140" width="140" height="140" rx="5" stroke="#6366F1" stroke-width="2" stroke-dasharray="5 5"/>
  <line x1="130" y1="210" x2="270" y2="210" stroke="#6366F1" stroke-width="2" stroke-dasharray="5 5"/>
  <line x1="200" y1="140" x2="200" y2="280" stroke="#6366F1" stroke-width="2" stroke-dasharray="5 5"/>
  
  <!-- Capture button -->
  <circle cx="200" cy="370" r="25" fill="#4B5563"/>
  <circle cx="200" cy="370" r="20" fill="#6366F1"/>
  
  <!-- Facial recognition points -->
  <circle cx="180" cy="95" r="3" fill="#6366F1"/>
  <circle cx="220" cy="95" r="3" fill="#6366F1"/>
  <circle cx="200" cy="130" r="3" fill="#6366F1"/>
  <circle cx="185" cy="115" r="3" fill="#6366F1"/>
  <circle cx="215" cy="115" r="3" fill="#6366F1"/>
  <circle cx="175" cy="85" r="3" fill="#6366F1"/>
  <circle cx="225" cy="85" r="3" fill="#6366F1"/>
  
  <!-- Text -->
  <text x="200" y="320" font-family="Arial" font-size="14" fill="white" text-anchor="middle">Take a clear selfie in natural light</text>
  <text x="200" y="340" font-family="Arial" font-size="14" fill="#6366F1" text-anchor="middle">for accurate color analysis</text>
</svg>